<svg id="Layer_1" data-name="Layer 1" xmlns="http://www.w3.org/2000/svg" viewBox="0 0 500 500"><defs><style>.cls-1{fill:#fd7400;}.cls-2{fill:#ffe119;}.cls-3{fill:#341f3a;}</style></defs><path class="cls-1" d="M305.91,229.3a66.21,66.21,0,1,1,0-71.17,39.27,39.27,0,1,0,0,71.17Z"/><path class="cls-2" d="M316.26,193.73c0,.46,0,.93,0,1.39a27,27,0,1,1,0-2.77C316.24,192.81,316.26,193.26,316.26,193.73Z"/><path class="cls-3" d="M328.5,192.26a39.24,39.24,0,0,0-6.31-19.9,38.47,38.47,0,0,0-5.42-6.63,39.32,39.32,0,1,0,0,56,39.28,39.28,0,0,0,11.73-26.51c0-.49,0-1,0-1.48S328.51,192.75,328.5,192.26Zm-12.28,2.86a27,27,0,1,1,0-2.77c0,.46,0,.91,0,1.38S316.24,194.66,316.22,195.12Z"/><path class="cls-3" d="M328.5,192.26a78.68,78.68,0,1,0,0,3c0-.49,0-1,0-1.48S328.51,192.75,328.5,192.26Zm-12.28,2.86a65.65,65.65,0,0,1-4.59,23,64.58,64.58,0,0,1-5.72,11.16,66.21,66.21,0,1,1,0-71.17,63,63,0,0,1,5.74,11.2,65.61,65.61,0,0,1,4.59,23c0,.46,0,.91,0,1.38S316.24,194.66,316.22,195.12Z"/><rect class="cls-3" x="316.26" y="115" width="12.27" height="157.05" rx="6.13"/><path class="cls-3" d="M48.36,384.9a22.93,22.93,0,0,1-12.48-3.47A24.75,24.75,0,0,1,27.17,372,28,28,0,0,1,24,358.53,26.46,26.46,0,0,1,27.46,345a25.73,25.73,0,0,1,9.42-9.48,26.12,26.12,0,0,1,13.38-3.47A25.59,25.59,0,0,1,73,345a26.46,26.46,0,0,1,3.48,13.52H72.73A28,28,0,0,1,69.54,372a24.67,24.67,0,0,1-8.71,9.43A22.89,22.89,0,0,1,48.36,384.9Zm1.9-8.56A16.23,16.23,0,0,0,58.93,374a16.61,16.61,0,0,0,6-6.38,18.8,18.8,0,0,0,2.19-9.09,19,19,0,0,0-2.19-9.19,16.68,16.68,0,0,0-6-6.38,17.18,17.18,0,0,0-17.28,0,16.78,16.78,0,0,0-6.1,6.38,18.69,18.69,0,0,0-2.24,9.19,18.5,18.5,0,0,0,2.24,9.09,16.71,16.71,0,0,0,6.1,6.38A16.27,16.27,0,0,0,50.26,376.34Zm21.33,8.28a4.72,4.72,0,0,1-4.85-4.86V365.19l1.8-10.09,7.91,3.43v21.23a4.72,4.72,0,0,1-4.86,4.86Z"/><path class="cls-3" d="M112.82,385a24.34,24.34,0,0,1-11.76-2.81A20.28,20.28,0,0,1,92.87,374a27.25,27.25,0,0,1-3-13.33V337.2a4.86,4.86,0,1,1,9.71,0v23.43a17.47,17.47,0,0,0,2,8.8,12.5,12.5,0,0,0,5.43,5.14,17.45,17.45,0,0,0,7.71,1.67,15.9,15.9,0,0,0,7.29-1.62,13.5,13.5,0,0,0,5.09-4.38,10.64,10.64,0,0,0,1.91-6.19h6a20.06,20.06,0,0,1-2.9,10.67,21,21,0,0,1-7.9,7.52A23.18,23.18,0,0,1,112.82,385Zm21-.48a4.72,4.72,0,0,1-4.85-4.85V337.2a4.63,4.63,0,0,1,1.38-3.52,4.84,4.84,0,0,1,8.33,3.52v42.47a4.78,4.78,0,0,1-1.34,3.47A4.65,4.65,0,0,1,133.86,384.52Z"/><path class="cls-3" d="M179.47,384.9A25.77,25.77,0,0,1,156.66,372a26.56,26.56,0,0,1-3.47-13.53A28,28,0,0,1,156.38,345a24.75,24.75,0,0,1,8.71-9.43,23,23,0,0,1,12.48-3.47,23.42,23.42,0,0,1,18.37,8.66V315a4.69,4.69,0,0,1,1.38-3.53,4.84,4.84,0,0,1,3.48-1.33,4.57,4.57,0,0,1,4.85,4.86v43.41A26.56,26.56,0,0,1,202.18,372a25.61,25.61,0,0,1-22.71,12.94Zm0-8.56a16.19,16.19,0,0,0,8.66-2.34,16.44,16.44,0,0,0,6-6.42,19.09,19.09,0,0,0,2.19-9.15,18.75,18.75,0,0,0-2.19-9.14,16.75,16.75,0,0,0-6-6.33,17.18,17.18,0,0,0-17.28,0,17,17,0,0,0-6.09,6.33,18.45,18.45,0,0,0-2.24,9.14,18.79,18.79,0,0,0,2.24,9.15,16.66,16.66,0,0,0,6.09,6.42A16.28,16.28,0,0,0,179.47,376.34Z"/><path class="cls-3" d="M228.6,324a6.33,6.33,0,1,1,4.43-1.86A6.05,6.05,0,0,1,228.6,324Zm0,60.55a4.72,4.72,0,0,1-4.86-4.85V337.3a4.69,4.69,0,0,1,1.38-3.53,4.84,4.84,0,0,1,3.48-1.33,4.59,4.59,0,0,1,4.86,4.86v42.37a4.78,4.78,0,0,1-1.34,3.47A4.67,4.67,0,0,1,228.6,384.52Z"/><path class="cls-3" d="M276,384.9a28.61,28.61,0,0,1-14-3.38,24.64,24.64,0,0,1-9.61-9.33,26.53,26.53,0,0,1-3.48-13.66,28,28,0,0,1,3.28-13.76,23.94,23.94,0,0,1,9.1-9.33,26,26,0,0,1,13.33-3.38,23.87,23.87,0,0,1,12.76,3.28,21.5,21.5,0,0,1,8.14,9.05,30,30,0,0,1,2.81,13.28,4,4,0,0,1-1.24,3,4.32,4.32,0,0,1-3.14,1.19H255.54v-7.61h38.09l-3.9,2.66a20.43,20.43,0,0,0-1.91-8.52,13.88,13.88,0,0,0-13.23-8.14,17.35,17.35,0,0,0-9.29,2.38,15.33,15.33,0,0,0-5.85,6.52,21.35,21.35,0,0,0-2,9.38,18.19,18.19,0,0,0,2.38,9.33,17.37,17.37,0,0,0,6.57,6.47,19.1,19.1,0,0,0,9.62,2.39,18.06,18.06,0,0,0,6-1.1,18.91,18.91,0,0,0,5-2.52,5.37,5.37,0,0,1,3.1-1.1,4.16,4.16,0,0,1,2.9,1,4.5,4.5,0,0,1,1.71,3.14,3.37,3.37,0,0,1-1.52,3,26.43,26.43,0,0,1-8.05,4.19A28.67,28.67,0,0,1,276,384.9Z"/><path class="cls-3" d="M330.48,384.9A22.87,22.87,0,0,1,318,381.43a24.69,24.69,0,0,1-8.72-9.43,28.12,28.12,0,0,1-3.19-13.47A26.46,26.46,0,0,1,309.58,345a25.75,25.75,0,0,1,9.43-9.48A26.23,26.23,0,0,1,355.09,345a26.46,26.46,0,0,1,3.48,13.52h-3.71A28.12,28.12,0,0,1,351.67,372a24.77,24.77,0,0,1-8.72,9.43A22.89,22.89,0,0,1,330.48,384.9Zm1.91-8.56a16.22,16.22,0,0,0,8.66-2.34,16.53,16.53,0,0,0,6-6.38,18.8,18.8,0,0,0,2.19-9.09,19,19,0,0,0-2.19-9.19,16.6,16.6,0,0,0-6-6.38,17.18,17.18,0,0,0-17.28,0,16.85,16.85,0,0,0-6.1,6.38,18.69,18.69,0,0,0-2.23,9.19,18.49,18.49,0,0,0,2.23,9.09,16.78,16.78,0,0,0,6.1,6.38A16.28,16.28,0,0,0,332.39,376.34Zm21.32,8.28a4.72,4.72,0,0,1-4.85-4.86V365.19l1.81-10.09,7.9,3.43v21.23a4.72,4.72,0,0,1-4.86,4.86Z"/><path class="cls-3" d="M394.94,385a24.34,24.34,0,0,1-11.76-2.81A20.28,20.28,0,0,1,375,374a27.25,27.25,0,0,1-3-13.33V337.2a4.75,4.75,0,0,1,4.86-4.86,4.73,4.73,0,0,1,4.86,4.86v23.43a17.37,17.37,0,0,0,2,8.8,12.43,12.43,0,0,0,5.42,5.14,17.46,17.46,0,0,0,7.72,1.67,15.88,15.88,0,0,0,7.28-1.62,13.43,13.43,0,0,0,5.09-4.38,10.64,10.64,0,0,0,1.91-6.19h6a20.07,20.07,0,0,1-2.91,10.67,20.92,20.92,0,0,1-7.9,7.52A23.15,23.15,0,0,1,394.94,385Zm21-.48a4.72,4.72,0,0,1-4.85-4.85V337.2a4.67,4.67,0,0,1,1.38-3.52,4.83,4.83,0,0,1,8.33,3.52v42.47a4.82,4.82,0,0,1-1.33,3.47A4.69,4.69,0,0,1,416,384.52Z"/><path class="cls-3" d="M471.68,384.52a5.76,5.76,0,0,1-1.81-.28,3.5,3.5,0,0,1-1.61-1.24l-16.67-20-3.43-3.42L431.6,340a5.62,5.62,0,0,1-1.34-3.28,4.12,4.12,0,0,1,1-3,3.86,3.86,0,0,1,3.14-1.24,4.45,4.45,0,0,1,3.62,1.62l16.28,19.42,2.48,2.29,17.9,21.42a5.11,5.11,0,0,1,1.38,3.38,4,4,0,0,1-1.24,2.81A4.31,4.31,0,0,1,471.68,384.52Zm-36.37,0a3.85,3.85,0,0,1-3-1.19,4.12,4.12,0,0,1-1.09-2.9,5.57,5.57,0,0,1,1.33-3.43l16.19-20.28,5.14,7.24-15.14,19A4.52,4.52,0,0,1,435.31,384.52Zm23.52-24.47-6.57-5.61,15.33-20.38a4.13,4.13,0,0,1,1.62-1.29,5.23,5.23,0,0,1,1.9-.33,3.79,3.79,0,0,1,3.14,1.29,4.54,4.54,0,0,1,1,3.09,6,6,0,0,1-1.39,3.52Z"/></svg>