<svg id="Layer_1" data-name="Layer 1" xmlns="http://www.w3.org/2000/svg" viewBox="0 0 500 500"><defs><style>.cls-1{fill:#fd7400;}.cls-2{fill:#ffe119;}.cls-3{fill:#341f3a;}</style></defs><path class="cls-1" d="M399.27,345.24a176.94,176.94,0,0,1-274.34,30.1A176.89,176.89,0,0,1,375.09,125.18a177.26,177.26,0,0,1,24.13,30,104.86,104.86,0,1,0,0,190Z"/><path class="cls-2" d="M426.89,250.29c0,1.21-.05,2.48-.1,3.69a72.09,72.09,0,1,1,0-7.39C426.84,247.81,426.89,249,426.89,250.29Z"/><path class="cls-3" d="M459.57,246.34a104.64,104.64,0,0,0-16.84-53.12,101.81,101.81,0,0,0-14.47-17.7,104.79,104.79,0,1,0-29,169.72,103.7,103.7,0,0,0,29-20.24,101.81,101.81,0,0,0,14.47-17.7,104,104,0,0,0,16.84-53.07c.05-1.31.05-2.63.05-3.94S459.62,247.66,459.57,246.34ZM426.79,254a72.09,72.09,0,1,1,0-7.39c0,1.22.1,2.43.1,3.7S426.84,252.77,426.79,254Z"/><path class="cls-3" d="M459.57,246.34A209.5,209.5,0,0,0,250,40.6c-115.8,0-209.64,93.89-209.64,209.69S134.19,459.92,250,459.92A209.49,209.49,0,0,0,459.57,254.23c.05-1.31.05-2.63.05-3.94S459.62,247.66,459.57,246.34ZM426.79,254a175.11,175.11,0,0,1-12.24,61.46,172.83,172.83,0,0,1-15.28,29.8,176.94,176.94,0,0,1-274.34,30.1A176.89,176.89,0,0,1,375.09,125.18a177.26,177.26,0,0,1,24.13,30,168.77,168.77,0,0,1,15.33,29.9,175.11,175.11,0,0,1,12.24,61.46c0,1.22.1,2.43.1,3.7S426.84,252.77,426.79,254Z"/><rect class="cls-3" x="426.89" y="40.08" width="32.76" height="419.3" rx="16.38"/></svg>